PathFileType	3	(X/Y/Z)	D:\VICON_DB\Goncalves\Pilot01\09-03-2026\bw_sq_140_02.trc
DataRate	CameraRate	NumFrames	NumMarkers	Units	OrigDataRate	OrigDataStartFrame	OrigNumFrames
200.0	200.0	10	34	mm	200.0	176	703	
Frame#	Time	LASI			RASI			LPSI			RPSI			LTHI			LTHAP			LTHAD			LKNE			LKNM			LTIB			LTIAP			LTIAD			LANK			LMED			LHEE			LTOE			LFMH			LSMH			LVMH			RTHI			RTHAP			RTHAD			RKNE			RKNM			RTIB			RTIAP			RTIAD			RANK			RMED			RHEE			RTOE			RFMH			RSMH			RVMH			
		X1	Y1	Z1	X2	Y2	Z2	X3	Y3	Z3	X4	Y4	Z4	X5	Y5	Z5	X6	Y6	Z6	X7	Y7	Z7	X8	Y8	Z8	X9	Y9	Z9	X10	Y10	Z10	X11	Y11	Z11	X12	Y12	Z12	X13	Y13	Z13	X14	Y14	Z14	X15	Y15	Z15	X16	Y16	Z16	X17	Y17	Z17	X18	Y18	Z18	X19	Y19	Z19	X20	Y20	Z20	X21	Y21	Z21	X22	Y22	Z22	X23	Y23	Z23	X24	Y24	Z24	X25	Y25	Z25	X26	Y26	Z26	X27	Y27	Z27	X28	Y28	Z28	X29	Y29	Z29	X30	Y30	Z30	X31	Y31	Z31	X32	Y32	Z32	X33	Y33	Z33	X34	Y34	Z34	
176	0.875	176.49463	763.99805	-1090.3342	165.27612	764.59613	-1350.8606				358.80338	832.5733	-1257.0304	172.66217	665.41925	-982.32086	210.9635	706.2663	-1013.04	194.3559	609.31049	-924.89398	151.12598	465.55881	-860.33258				209.01138	280.92654	-830.53571	111.7936	338.74249	-845.77679	167.30782	244.33473	-826.06439	262.58588	75.213593	-839.84607				275.30368	63.976852	-906.09198	186.17818	71.847061	-817.46002	124.99895	45.051186	-813.78522				173.05882	24.460634	-748.53882	173.49803	607.97498	-1507.7697	174.73808	704.43982	-1419.5404	125.55019	646.67499	-1452.8588	139.5448	476.73236	-1556.3021				180.01692	293.29257	-1598.3607	101.3352	325.28796	-1577.7709	131.57114	246.88245	-1579.5262	260.94263	65.051003	-1572.5067				269.84695	60.548271	-1518.8475	177.17459	70.545547	-1607.2688	120.88726	50.660625	-1611.506				168.75871	20.487133	-1667.9705
177	0.88	177.5737	760.85883	-1090.4105	166.23412	761.56891	-1351.0013				359.55219	830.04785	-1257.1729	173.64088	664.23651	-982.40143	212.23215	704.5481	-1013.2048	194.84114	608.22736	-924.66608	150.47324	465.1731	-859.25995				208.41092	280.6044	-829.97168	110.9306	338.32159	-844.81146	166.76994	243.95206	-825.45789	262.50308	75.166695	-839.84143				275.24567	64.053101	-906.05481	186.13271	71.834862	-817.47742	124.97986	45.029812	-813.79865				173.05496	24.470535	-748.5509	173.88445	606.85248	-1508.2164	175.8192	702.83801	-1419.6035	126.25094	645.68994	-1453.093	138.83548	476.21622	-1557.5623				179.25818	292.91394	-1599.219	100.41129	324.77582	-1578.8632	130.94374	246.42703	-1580.269	260.8793	65.069672	-1572.5414				269.77393	60.625744	-1518.8813	177.12549	70.507988	-1607.2966	120.86678	50.628883	-1611.5044				168.76369	20.47839	-1667.9816
178	0.885	178.63611	757.71814	-1090.4811	167.17569	758.53735	-1351.1331				360.2858	827.52008	-1257.3197	174.61342	663.04456	-982.50629	213.48921	702.82434	-1013.3815	195.32262	607.14587	-924.45941	149.83734	464.79477	-858.20435				207.83342	280.27707	-829.43365	110.08544	337.90503	-843.85431	166.24818	243.57434	-824.85657	262.42441	75.118301	-839.8457				275.18707	64.126602	-906.01971	186.08974	71.823792	-817.495	124.96065	45.008877	-813.8139				173.05115	24.481173	-748.56372	174.28151	605.72589	-1508.6558	176.89197	701.22198	-1419.6581	126.95798	644.69202	-1453.3185	138.15479	475.70361	-1558.8118				178.52908	292.53433	-1600.0615	99.51519	324.27103	-1579.951	130.33783	245.97766	-1581.0099	260.81949	65.087189	-1572.5764				269.70441	60.703018	-1518.9155	177.0791	70.471016	-1607.326	120.8476	50.598362	-1611.5035				168.7691	20.468405	-1667.994
179	0.89	179.67928	754.57794	-1090.5459	168.10214	755.50317	-1351.2571				361.00409	824.98993	-1257.4701	175.58044	661.84399	-982.63275	214.7339	701.0954	-1013.5703	195.80284	606.06622	-924.27191	149.22156	464.4248	-857.1626				207.27921	279.94727	-828.91418	109.26009	337.49374	-842.90088	165.74426	243.20212	-824.25787	262.34998	75.068634	-839.85718				275.1283	64.197792	-905.98608	186.04951	71.813934	-817.51208	124.94141	44.988956	-813.83051				173.04742	24.49235	-748.57703	174.69087	604.59351	-1509.0889	177.95816	699.59338	-1419.7067	127.67257	643.68219	-1453.5375	137.50253	475.19315	-1560.049				177.82755	292.15378	-1600.8899	98.646255	323.77267	-1581.0331	129.75211	245.53404	-1581.7472	260.76306	65.103622	-1572.6119				269.63831	60.780224	-1518.9503	177.03514	70.435242	-1607.3572	120.82976	50.569061	-1611.5029				168.7748	20.457407	-1668.0074
180	0.895	180.70084	751.43951	-1090.606	169.01489	752.46753	-1351.3749				361.70758	822.4563	-1257.6232	176.54266	660.6347	-982.77795	215.96529	699.36096	-1013.7713	196.28436	604.98859	-924.10114	148.62894	464.06381	-856.13123				206.74759	279.61841	-828.40375	108.45644	337.08862	-841.94727	165.25949	242.83572	-823.65906	262.2796	75.018105	-839.87323				275.06976	64.267075	-905.95325	186.01216	71.805275	-817.5282	124.92244	44.970554	-813.84735				173.04388	24.503838	-748.59021	175.11438	603.45349	-1509.5155	179.01981	697.95355	-1419.7523	128.396	642.6615	-1453.7528	136.87868	474.68292	-1561.2714				177.15128	291.7728	-1601.7065	97.803871	323.27997	-1582.1079	129.18532	245.09589	-1582.4806	260.70984	65.118973	-1572.6481				269.57565	60.857471	-1518.9858	176.99324	70.401276	-1607.3899	120.81326	50.541008	-1611.5026				168.78067	20.44556	-1668.022
181	0.9	181.69893	748.30396	-1090.6622	169.91533	749.43152	-1351.4882				362.39749	819.91669	-1257.7772	177.50072	659.41577	-982.93878	217.18239	697.62048	-1013.9841	196.76974	603.9118	-923.94434	148.06218	463.71188	-855.10797				206.23743	279.29401	-827.8924	107.67624	336.69006	-840.99005	164.795	242.47537	-823.05804	262.21317	74.967087	-839.89178				275.01199	64.334785	-905.92065	185.97777	71.797729	-817.5426	124.90414	44.95406	-813.86377				173.04059	24.515373	-748.60315	175.55382	602.30341	-1509.9363	180.07909	696.30438	-1419.7975	129.12956	641.63074	-1453.9666	136.28322	474.17123	-1562.4769				176.49783	291.39203	-1602.5143	96.987411	322.79248	-1583.174	128.63647	244.66293	-1583.2089	260.65985	65.133209	-1572.6848				269.51651	60.934822	-1519.0222	176.95297	70.369797	-1607.4247	120.79813	50.514297	-1611.5022				168.78662	20.43297	-1668.0372
182	0.905	182.6723	745.17169	-1090.7163	170.80479	746.39569	-1351.599				363.07587	817.3678	-1257.9293	178.45505	658.18652	-983.11206	218.3842	695.87299	-1014.2082	197.26131	602.83502	-923.79895	147.52359	463.36853	-854.09027				205.74733	278.97708	-827.37103	106.92107	336.29837	-840.02673	164.35136	242.12106	-822.45312	262.15042	74.915764	-839.91034				274.95551	64.401207	-905.88757	185.94638	71.791054	-817.55493	124.88709	44.939713	-813.87848				173.03764	24.526646	-748.61536	176.01051	601.14111	-1510.3514	181.13815	694.6474	-1419.8447	129.87451	640.59039	-1454.1807	135.71596	473.65695	-1563.665				175.86493	291.01224	-1603.3158	96.196175	322.30981	-1584.2311	128.10464	244.23499	-1583.932	260.61295	65.14621	-1572.7223				269.46066	61.012245	-1519.0591	176.91399	70.341377	-1607.4622	120.78439	50.488998	-1611.5021				168.79263	20.419697	-1668.053
183	0.91	183.62016	742.04297	-1090.7695	171.68437	743.36072	-1351.7097				363.745	814.80554	-1258.0771	179.40608	656.94537	-983.29437	219.5697	694.11676	-1014.4428	197.76117	601.75623	-923.66217	147.01492	463.03299	-853.07629				205.27625	278.66937	-826.83295	106.19244	335.91342	-839.0553	163.92879	241.77263	-821.8429	262.09097	74.864197	-839.92676				274.90091	64.466591	-905.85352	185.91791	71.785019	-817.56476	124.87185	44.927597	-813.8905				173.03517	24.537317	-748.62653	176.48515	599.96545	-1510.7616	182.1991	692.98419	-1419.896	130.63196	639.54089	-1454.3973	135.17632	473.14014	-1564.8364				175.25079	290.63388	-1604.114	95.429382	321.83185	-1585.2784	127.58909	243.81186	-1584.6495	260.56912	65.157829	-1572.7607				269.40781	61.089615	-1519.0966	176.87621	70.316406	-1607.5021	120.77207	50.465179	-1611.5022				168.79871	20.405746	-1668.0693
184	0.915	184.5421	738.91766	-1090.8237	172.55486	740.32672	-1351.823				364.40677	812.22681	-1258.2172	180.354	655.69092	-983.48248	220.73781	692.35046	-1014.6863	198.27109	600.67358	-923.53119	146.53735	462.70407	-852.06458				204.82329	278.3717	-826.27319	105.49164	335.535	-838.07465	163.52711	241.42975	-821.22644	262.03455	74.812294	-839.93933				274.84863	64.531151	-905.81787	185.89232	71.77932	-817.57178	124.85879	44.917679	-813.89917				173.03328	24.547028	-748.63611	176.97763	598.77649	-1511.1682	183.26363	691.31592	-1419.9529	131.40262	638.48273	-1454.6177	134.66351	472.62173	-1565.9932				174.65405	290.25748	-1604.9109	94.686256	321.35846	-1586.3164	127.08929	243.39346	-1585.3615	260.52853	65.167946	-1572.7999				269.35767	61.166714	-1519.1349	176.83963	70.295029	-1607.5449	120.76122	50.442883	-1611.5029				168.80482	20.391079	-1668.0864
185	0.92	185.43797	735.79523	-1090.8805	173.41666	737.29376	-1351.9406				365.0618	809.62976	-1258.3477	181.29898	654.42151	-983.6731	221.88756	690.5722	-1014.9375	198.79245	599.58484	-923.40326	146.09163	462.38025	-851.05396				204.3877	278.08383	-825.68927	104.8196	335.16284	-837.08423	163.14581	241.09183	-820.60309	261.98065	74.759926	-839.94629				274.7991	64.5951	-905.78015	185.86946	71.773621	-817.57562	124.84804	44.909866	-813.90399				173.03203	24.55542	-748.64392	177.48737	597.57471	-1511.5725	184.33325	689.64362	-1420.0161	132.18684	637.4162	-1454.8425	134.17686	472.10257	-1567.1375				174.07379	289.88339	-1605.7076	93.966064	320.88959	-1587.3459	126.6049	242.97978	-1586.0681	260.49115	65.176453	-1572.84				269.30954	61.243248	-1519.1737	176.80452	70.277245	-1607.5907	120.75187	50.422134	-1611.5044				168.81097	20.375637	-1668.1039
